# xmcd
#
# Track frame offsets:
#	182
#	10962
#	22060
#	33462
#	45030
#	55470
#	67902
#	77777
#	86937
#	97375
#	106972
#	116437
#	125202
#	134567
#	145362
#	153015
#	162312
#	171462
#	180342
#	189640
#	211845
#
# Disc length: 4440 seconds
#
# Revision: 3
# Processed by: cddbd v1.5.2PL0 Copyright (c) Steve Scherf et al.
# Submitted via: EasyCDDAExtractor 11.1.0.1
#
DISCID=2b115615
DTITLE=Fats Domino - The Essential Fats Domino
DYEAR=2003
DGENRE=Blues
TTITLE0=Blueberry Hill
TTITLE1=Ain't That A Shame
TTITLE2=Going To The River
TTITLE3=Please Don't Leave Me
TTITLE4=Blue Monday
TTITLE5=The Fat Man
TTITLE6=So Long
TTITLE7=I'm In Love Again
TTITLE8=When My Dreamboat Comes Home
TTITLE9=I'm Walkin'
TTITLE10=I'm Ready
TTITLE11=Wait And See
TTITLE12=I'm Gonna Be A Wheel Someday
TTITLE13=I Want To Walk You Home
TTITLE14=Whole Lotta Loving
TTITLE15=Be My Guest
TTITLE16=My Girl Josephine
TTITLE17=Walking To New Orleans
TTITLE18=Let The Four Winds Blow
TTITLE19=Jambalaya (On The Bayou)
TTITLE20=data
EXTD=
EXTT0=
EXTT1=
EXTT2=
EXTT3=
EXTT4=
EXTT5=
EXTT6=
EXTT7=
EXTT8=
EXTT9=
EXTT10=
EXTT11=
EXTT12=
EXTT13=
EXTT14=
EXTT15=
EXTT16=
EXTT17=
EXTT18=
EXTT19=
EXTT20=
PLAYORDER=
